<?xml version="1.0" encoding="utf-8"?>
<!-- Generator: Adobe Illustrator 16.0.3, SVG Export Plug-In . SVG Version: 6.00 Build 0)  -->
<!DOCTYPE svg PUBLIC "-//W3C//DTD SVG 1.1//EN" "http://www.w3.org/Graphics/SVG/1.1/DTD/svg11.dtd">
<svg version="1.1" id="Capa_1" focusable="false" xmlns="http://www.w3.org/2000/svg" xmlns:xlink="http://www.w3.org/1999/xlink"
	 x="0px" y="0px" width="595.281px" height="841.89px" viewBox="0 0 595.281 841.89" enable-background="new 0 0 595.281 841.89"
	 xml:space="preserve">
<linearGradient id="SVGID_1_" gradientUnits="userSpaceOnUse" x1="-0.0996" y1="420.8125" x2="595.5132" y2="420.8125">
	<stop  offset="0" style="stop-color:#7676ff"/>
	<stop  offset="1" style="stop-color:#f978df"/>
</linearGradient>
<path fill="url(#SVGID_1_)" d="M297.773,268.139c-84.508,0-152.673,68.165-152.673,152.673c0,84.508,68.165,152.674,152.673,152.674
	c84.508,0,152.674-68.166,152.674-152.674C450.447,336.304,382.281,268.139,297.773,268.139z M297.773,520.07
	c-54.612,0-99.258-44.514-99.258-99.258s44.513-99.257,99.258-99.257c54.744,0,99.258,44.513,99.258,99.257
	S352.384,520.07,297.773,520.07z M492.302,261.894c0,19.798-15.945,35.61-35.611,35.61c-19.797,0-35.609-15.945-35.609-35.61
	s15.945-35.61,35.609-35.61C476.357,226.283,492.302,242.228,492.302,261.894z M593.419,298.036
	c-2.258-47.702-13.154-89.957-48.1-124.77c-34.814-34.813-77.068-45.709-124.77-48.101c-49.164-2.79-196.523-2.79-245.687,0
	c-47.569,2.259-89.824,13.155-124.77,47.968c-34.946,34.813-45.709,77.068-48.101,124.77c-2.791,49.164-2.791,196.522,0,245.687
	c2.259,47.701,13.155,89.955,48.101,124.77c34.946,34.813,77.068,45.709,124.77,48.1c49.164,2.791,196.522,2.791,245.687,0
	c47.701-2.258,89.955-13.154,124.77-48.1c34.813-34.814,45.709-77.068,48.1-124.77C596.21,494.425,596.21,347.199,593.419,298.036z
	 M529.906,596.339c-10.363,26.045-30.428,46.109-56.605,56.605c-39.197,15.547-132.211,11.959-175.527,11.959
	c-43.317,0-136.462,3.455-175.528-11.959c-26.043-10.363-46.108-30.428-56.605-56.605C50.094,557.142,53.682,464.13,53.682,420.812
	c0-43.317-3.455-136.462,11.958-175.528c10.364-26.043,30.429-46.107,56.605-56.604c39.198-15.547,132.21-11.959,175.528-11.959
	c43.316,0,136.463-3.455,175.527,11.959c26.045,10.364,46.107,30.428,56.605,56.604c15.547,39.198,11.959,132.211,11.959,175.528
	C541.865,464.13,545.453,557.275,529.906,596.339z"/>
</svg>