<?xml version="1.0" encoding="utf-8"?>
<!-- Generator: Adobe Illustrator 16.0.3, SVG Export Plug-In . SVG Version: 6.00 Build 0)  -->
<!DOCTYPE svg PUBLIC "-//W3C//DTD SVG 1.1//EN" "http://www.w3.org/Graphics/SVG/1.1/DTD/svg11.dtd">
<svg version="1.1" id="Capa_1" focusable="false" xmlns="http://www.w3.org/2000/svg" xmlns:xlink="http://www.w3.org/1999/xlink"
	 x="0px" y="0px" width="595.281px" height="841.89px" viewBox="0 0 595.281 841.89" enable-background="new 0 0 595.281 841.89"
	 xml:space="preserve">
<linearGradient id="SVGID_1_" gradientUnits="userSpaceOnUse" x1="2.831221e-007" y1="420.9448" x2="595.2808" y2="420.9448">
	<stop  offset="0" style="stop-color:#7676ff"/>
	<stop  offset="1" style="stop-color:#f978df"/>
</linearGradient>
<path fill="url(#SVGID_1_)" d="M584.003,345.14c4.533-3.604,11.277-0.232,11.277,5.465v237.762
	c0,30.811-24.998,55.809-55.809,55.809H55.808C24.997,644.175,0,619.177,0,588.367V350.721c0-5.813,6.627-9.069,11.278-5.464
	c26.043,20.23,60.574,45.925,179.166,132.077c24.532,17.906,65.922,55.576,107.197,55.344
	c41.508,0.348,83.711-38.137,107.313-55.344C523.544,391.181,557.958,365.37,584.003,345.14z M297.64,495.355
	c26.975,0.465,65.807-33.949,85.34-48.135c154.283-111.963,166.027-121.729,201.604-149.633
	c6.744-5.232,10.697-13.371,10.697-21.975v-22.09c0-30.811-24.998-55.808-55.809-55.808H55.808C24.997,197.715,0,222.712,0,253.522
	v22.09c0,8.604,3.953,16.626,10.696,21.974c35.578,27.788,47.32,37.67,201.605,149.633
	C231.834,461.406,270.667,495.82,297.64,495.355L297.64,495.355z"/>
</svg>
