<?xml version="1.0" encoding="utf-8"?>
<!-- Generator: Adobe Illustrator 16.0.3, SVG Export Plug-In . SVG Version: 6.00 Build 0)  -->
<!DOCTYPE svg PUBLIC "-//W3C//DTD SVG 1.1//EN" "http://www.w3.org/Graphics/SVG/1.1/DTD/svg11.dtd">
<svg version="1.1" id="Capa_1" focusable="false" xmlns="http://www.w3.org/2000/svg" xmlns:xlink="http://www.w3.org/1999/xlink"
	 x="0px" y="0px" width="595.281px" height="841.89px" viewBox="0 0 595.281 841.89" enable-background="new 0 0 595.281 841.89"
	 xml:space="preserve">
<linearGradient id="SVGID_1_" gradientUnits="userSpaceOnUse" x1="2.831221e-007" y1="420.9458" x2="595.2788" y2="420.9458">
	<stop  offset="0" style="stop-color:#7676ff"/>
	<stop  offset="1" style="stop-color:#f978df"/>
</linearGradient>
<path fill="url(#SVGID_1_)" d="M534.089,299.699c0.379,5.288,0.379,10.577,0.379,15.864c0,161.284-122.758,347.12-347.121,347.12
	c-69.123,0-133.333-20.02-187.347-54.768c9.821,1.133,19.263,1.51,29.462,1.51c57.034,0,109.537-19.262,151.464-52.123
	c-53.636-1.135-98.584-36.262-114.071-84.609c7.555,1.133,15.109,1.889,23.042,1.889c10.954,0,21.908-1.512,32.106-4.154
	c-55.902-11.334-97.83-60.436-97.83-119.737v-1.51c16.241,9.065,35.128,14.731,55.146,15.485
	c-32.861-21.908-54.39-59.301-54.39-101.606c0-22.662,6.042-43.437,16.619-61.567c60.057,74.032,150.332,122.379,251.559,127.667
	c-1.888-9.065-3.022-18.507-3.022-27.95c0-67.234,54.392-122.002,122.001-122.002c35.129,0,66.855,14.73,89.143,38.527
	c27.572-5.288,54.012-15.487,77.432-29.462c-9.066,28.33-28.33,52.125-53.637,67.233c24.553-2.643,48.348-9.443,70.256-18.885
	C578.662,260.794,557.886,282.323,534.089,299.699L534.089,299.699z"/>
</svg>
