<?xml version="1.0" encoding="utf-8"?>
<!-- Generator: Adobe Illustrator 16.0.3, SVG Export Plug-In . SVG Version: 6.00 Build 0)  -->
<!DOCTYPE svg PUBLIC "-//W3C//DTD SVG 1.1//EN" "http://www.w3.org/Graphics/SVG/1.1/DTD/svg11.dtd">
<svg version="1.1" id="Capa_1" focusable="false" xmlns="http://www.w3.org/2000/svg" xmlns:xlink="http://www.w3.org/1999/xlink"
	 x="0px" y="0px" width="595.281px" height="841.89px" viewBox="0 0 595.281 841.89" enable-background="new 0 0 595.281 841.89"
	 xml:space="preserve">
<linearGradient id="SVGID_1_" gradientUnits="userSpaceOnUse" x1="9.3013" y1="419.2017" x2="585.98" y2="419.2017">
	<stop  offset="0" style="stop-color:#039DFD"/>
	<stop  offset="1" style="stop-color:#EC2F4B"/>
</linearGradient>
<path fill="url(#SVGID_1_)" d="M585.98,420.945c0-159.284-129.057-288.339-288.34-288.339
	c-159.284,0-288.339,129.055-288.339,288.339c0,143.914,105.441,263.203,243.286,284.851v-201.5H179.34v-83.351h73.248v-63.528
	c0-72.259,43.018-112.173,108.906-112.173c31.555,0,64.551,5.627,64.551,5.627v70.922h-36.369
	c-35.809,0-46.982,22.229-46.982,45.029v54.122h79.967l-12.789,83.351h-67.178v201.5C480.539,684.148,585.98,564.859,585.98,420.945
	z"/>
</svg>
